<svg width="20" height="20" viewBox="0 0 20 20" fill="none" xmlns="http://www.w3.org/2000/svg">
<path d="M19.6487 7.4397L17.1462 5.40016V2.13837C17.1462 1.77106 16.8473 1.47219 16.48 1.47219H14.9054C14.5381 1.47219 14.2393 1.77106 14.2393 2.13837V3.03087L10.8955 0.305655C10.6536 0.108587 10.3348 0 9.99782 0C9.66219 0 9.34491 0.107921 9.10436 0.303959L0.3512 7.43963C-0.046508 7.7637 -0.0226467 8.04598 0.0269533 8.18539C0.0764322 8.3245 0.23577 8.55791 0.746668 8.55791H1.94524V17.9418C1.94524 18.6114 2.4886 19.1562 3.15648 19.1562H6.94158C7.60382 19.1562 8.12253 18.6227 8.12253 17.9418V14.0936C8.12253 13.7638 8.42564 13.4635 8.75843 13.4635H11.302C11.6192 13.4635 11.8774 13.7462 11.8774 14.0936V17.9418C11.8774 18.6001 12.4459 19.1562 13.1189 19.1562H16.8434C17.5113 19.1562 18.0546 18.6114 18.0546 17.9418V8.55791H19.2532C19.7641 8.55791 19.9234 8.3245 19.9729 8.18539C20.0225 8.04598 20.0464 7.7637 19.6487 7.4397Z" fill="white"/>
</svg>
